<svg width="34" height="34" viewBox="0 0 34 34" fill="none" xmlns="http://www.w3.org/2000/svg">
<path d="M6.76868 3.92077L4.84585 8.12871C4.84585 8.12871 1.94767 6.31735 1.05592 3.66997C1.02805 3.66997 4.84585 3.11263 6.76868 3.92077Z" fill="#EAEAF0"/>
<path d="M2.0312 18.7183C3.70322 23.2049 7.24235 27.6079 15.9648 28.7783C20.2842 29.3635 24.2134 28.6669 26.7215 26.6604C27.0559 26.4096 27.3346 26.131 27.6132 25.7965C27.669 25.7965 27.7247 25.8244 27.7526 25.8244C30.0934 26.131 32.0998 26.0752 33.0752 25.6851C23.5168 22.5918 17.386 15.1234 18.1384 9.21559C18.8908 3.30776 15.4074 1.52426 12.5371 1.10625C7.68823 0.409572 4.3999 3.33562 4.81791 8.12877C2.39347 9.10412 0.442768 14.5382 2.0312 18.7183Z" fill="white"/>
<path d="M10.3914 5.89945C9.92969 5.89945 9.55539 5.52515 9.55539 5.06343C9.55539 4.60171 9.92969 4.22742 10.3914 4.22742C10.8531 4.22742 11.2274 4.60171 11.2274 5.06343C11.2274 5.52515 10.8531 5.89945 10.3914 5.89945Z" fill="#EAEAF0"/>
<path d="M33.549 25.6572C33.549 25.4622 33.4096 25.2671 33.2145 25.2114C30.3442 24.2918 27.6411 22.8984 25.2445 21.087C25.0216 20.9198 24.7151 20.9756 24.5479 21.1706C24.3807 21.3936 24.4364 21.7001 24.6315 21.8673C26.6379 23.3721 28.8115 24.5983 31.1524 25.5179C29.982 25.5458 28.8115 25.49 27.6411 25.3228C23.6561 24.7934 18.9466 23.2885 17.4417 21.1428C17.2745 20.9198 16.968 20.892 16.7729 21.0313C16.55 21.1985 16.5221 21.4772 16.6615 21.7001C18.3056 24.0688 22.8201 25.5179 26.5543 26.1589C24.6872 27.7473 21.4546 29.0013 15.9927 28.3046C15.491 28.2489 14.9894 28.1653 14.5157 28.0538C8.30132 26.8834 4.45565 23.818 2.47709 18.5511C0.916523 14.3989 2.95082 9.38283 4.98513 8.57468C5.2638 8.43535 5.29167 8.24028 5.29167 8.07307C5.0966 5.95517 5.68181 4.14381 6.93583 2.97339C8.24558 1.74723 10.1963 1.24562 12.4535 1.58003C15.2124 1.97017 18.3614 3.61433 17.6647 9.13203C17.2745 12.1974 18.5843 15.6529 21.371 18.8298C21.5382 19.0249 21.8448 19.0527 22.0677 18.8855C22.2628 18.7183 22.2906 18.4118 22.1234 18.1888C19.5596 15.2628 18.2778 12.0302 18.64 9.27136C19.476 2.63898 15.2124 0.994819 12.5929 0.604679C10.0569 0.242406 7.79971 0.827617 6.26702 2.24884C5.98835 2.49965 5.73754 2.77832 5.54247 3.08486C3.53604 2.80618 1.05586 3.14059 0.944389 3.16846C0.665718 3.19632 0.442783 3.475 0.554253 3.8094C0.721455 4.25528 0.916523 4.67328 1.16733 5.09129C1.30666 5.31423 1.6132 5.39783 1.83614 5.25849C2.05908 5.11916 2.14268 4.81262 2.00334 4.58968C1.89187 4.42248 1.80827 4.22741 1.72467 4.06021C2.81149 3.94874 3.92618 3.92087 5.013 4.00447C4.56712 4.97982 4.31632 6.03877 4.31632 7.12559C3.95404 6.81905 3.59177 6.51251 3.25736 6.17811C3.0623 5.98304 2.75576 5.98304 2.56069 6.15024C2.36562 6.34531 2.36562 6.65185 2.53282 6.84692C2.95083 7.29279 3.42457 7.68293 3.89831 8.04521C1.58534 9.7451 0.0526428 14.8448 1.55747 18.8577C3.59177 24.2918 7.66038 27.5801 13.9305 28.8898V29.698C13.5125 29.6144 13.0945 29.5586 12.6765 29.5308C12.3978 29.5308 12.2027 29.7537 12.2027 30.0324C12.2027 30.3111 12.4257 30.5061 12.7043 30.5061C13.401 30.4783 15.0452 30.9241 16.2713 31.2864C16.5221 31.37 16.8008 31.2307 16.8844 30.9799C16.968 30.7291 16.8287 30.4504 16.5779 30.3668C16.5779 30.3668 15.6304 30.0881 14.9337 29.893V29.0292C15.2402 29.0849 15.5746 29.1406 15.9091 29.1685C16.6615 29.28 17.3581 29.3357 18.0827 29.3636V31.788C17.6925 31.7044 17.1631 31.6487 16.8287 31.6208C16.55 31.6208 16.3549 31.8437 16.3549 32.1224C16.3549 32.4011 16.5779 32.5962 16.8565 32.5962C17.5532 32.5683 19.1974 33.0142 20.4235 33.3764C20.6743 33.46 20.953 33.3207 21.0366 33.042C21.1202 32.7912 20.9809 32.5126 20.7022 32.429C20.3957 32.3454 19.7547 32.1503 19.058 31.9552V29.3078C22.7922 29.28 25.8855 28.1932 27.8362 26.1589C28.7558 26.2703 29.6754 26.3539 30.595 26.3539C31.7655 26.3539 32.7129 26.2425 33.2982 25.9916C33.4654 26.0474 33.5768 25.8802 33.549 25.6572ZM23.6561 20.9198C23.5447 20.9198 23.4332 20.8641 23.3217 20.8084C23.0709 20.5854 22.848 20.3625 22.5972 20.1395C22.4021 19.9445 22.4021 19.6379 22.5693 19.4429C22.7644 19.2478 23.0709 19.2478 23.266 19.415C23.4889 19.6379 23.7119 19.833 23.9627 20.0559C24.1577 20.2231 24.1856 20.5297 24.0184 20.7526C23.9348 20.8641 23.7955 20.9198 23.6561 20.9198ZM4.65072 21.3378C4.26058 20.7248 3.89831 20.1117 3.61964 19.4429C3.50817 19.1921 3.61964 18.9134 3.87044 18.8019C4.12125 18.6905 4.39992 18.8019 4.51139 19.0527C4.79006 19.6658 5.0966 20.251 5.48674 20.8084C5.62607 21.0313 5.57034 21.3378 5.3474 21.4772C4.98513 21.6722 4.73432 21.4772 4.65072 21.3378ZM10.3914 6.37318C11.1159 6.37318 11.729 5.78797 11.729 5.03556C11.729 4.28314 11.1438 3.69793 10.3914 3.69793C9.63894 3.69793 9.05373 4.28314 9.05373 5.03556C9.0816 5.78797 9.66681 6.37318 10.3914 6.37318ZM10.3914 5.39783C10.1963 5.39783 10.0291 5.23063 10.0291 5.03556C10.0291 4.84049 10.1963 4.67328 10.3914 4.67328C10.5864 4.67328 10.7536 4.84049 10.7536 5.03556C10.7536 5.23063 10.5864 5.39783 10.3914 5.39783Z" fill="#8C6239"/>
</svg>
