<svg width="14" height="14" viewBox="0 0 14 14" fill="none" xmlns="http://www.w3.org/2000/svg">
<path d="M5.29389 13.998C4.85889 13.998 4.44689 13.795 4.18289 13.445L0.609892 8.72402C0.499425 8.57823 0.418778 8.41209 0.372559 8.2351C0.326341 8.05812 0.315459 7.87376 0.340534 7.69256C0.365609 7.51137 0.426151 7.33689 0.518698 7.17911C0.611244 7.02133 0.733982 6.88334 0.879892 6.77302C1.02575 6.66225 1.19204 6.58134 1.36922 6.53495C1.5464 6.48856 1.731 6.47759 1.91243 6.50267C2.09386 6.52776 2.26856 6.5884 2.42651 6.68112C2.58446 6.77384 2.72256 6.89683 2.83289 7.04302L5.18389 10.147L11.0949 0.655023C11.2909 0.341622 11.6033 0.118769 11.9634 0.0353462C12.3235 -0.0480768 12.702 0.0147419 13.0159 0.210023C13.6689 0.616023 13.8699 1.47602 13.4619 2.13002L6.47789 13.34C6.35867 13.5322 6.19434 13.6925 5.99916 13.8068C5.80399 13.9211 5.58386 13.9861 5.35789 13.996C5.33589 13.998 5.31589 13.998 5.29389 13.998Z" fill="#20AD69"/>
</svg>
