<svg width="25" height="25" viewBox="0 0 25 25" fill="none" xmlns="http://www.w3.org/2000/svg">
<path d="M9.57031 13.2812C9.16621 13.2812 8.83789 13.6096 8.83789 14.0137C8.83789 14.4178 9.16621 14.7461 9.57031 14.7461C9.97441 14.7461 10.3027 14.4178 10.3027 14.0137C10.3027 13.6096 9.97441 13.2812 9.57031 13.2812Z" fill="white"/>
<path d="M15.4297 19.1406C15.0256 19.1406 14.6973 19.4689 14.6973 19.873C14.6973 20.2771 15.0256 20.6055 15.4297 20.6055C15.8338 20.6055 16.1621 20.2771 16.1621 19.873C16.1621 19.4689 15.8338 19.1406 15.4297 19.1406Z" fill="white"/>
<path d="M22.8027 8.83789H2.19727C0.985645 8.83789 0 9.82354 0 11.0352V22.8027C0 24.0144 0.985645 25 2.19727 25H22.8027C24.0144 25 25 24.0144 25 22.8027V11.0352C25 9.82354 24.0144 8.83789 22.8027 8.83789ZM7.37305 14.0137C7.37305 12.8021 8.35869 11.8164 9.57031 11.8164C10.7819 11.8164 11.7676 12.8021 11.7676 14.0137C11.7676 15.2253 10.7819 16.2109 9.57031 16.2109C8.35869 16.2109 7.37305 15.2253 7.37305 14.0137ZM9.16401 21.9473C8.82715 21.7227 8.73628 21.2686 8.96089 20.9316L14.8203 12.1426C15.0435 11.8057 15.4977 11.7141 15.8359 11.9395C16.1728 12.1641 16.2637 12.6182 16.0391 12.9551L10.1797 21.7442C9.95874 22.0761 9.50625 22.1742 9.16401 21.9473ZM15.4297 22.0703C14.2181 22.0703 13.2324 21.0847 13.2324 19.873C13.2324 18.6614 14.2181 17.6758 15.4297 17.6758C16.6413 17.6758 17.627 18.6614 17.627 19.873C17.627 21.0847 16.6413 22.0703 15.4297 22.0703Z" fill="white"/>
<path d="M14.4771 3.13862C14.6142 2.85215 14.6973 2.5355 14.6973 2.19727C14.6973 0.985645 13.7117 0 12.5 0C11.2884 0 10.3028 0.985645 10.3028 2.19727C10.3028 2.5355 10.3859 2.85215 10.523 3.13862L6.3374 7.37305H8.40879L11.5587 4.17432C11.8452 4.31138 12.1618 4.39453 12.5 4.39453C12.8383 4.39453 13.1549 4.31138 13.4414 4.17432L16.5913 7.37305H18.6627L14.4771 3.13862Z" fill="white"/>
</svg>
