<svg width="23" height="23" viewBox="0 0 23 23" fill="none" xmlns="http://www.w3.org/2000/svg">
<path d="M21.944 8.22008L15.2493 7.24713L12.2567 1.18004C12.1749 1.01393 12.0404 0.879453 11.8743 0.797715C11.4577 0.592051 10.9515 0.763438 10.7432 1.18004L7.7505 7.24713L1.05588 8.22008C0.871307 8.24645 0.702556 8.33346 0.573357 8.46529C0.417163 8.62583 0.331092 8.84182 0.334059 9.06578C0.337025 9.28975 0.428786 9.50338 0.589177 9.65973L5.43283 14.3821L4.28849 21.0504C4.26166 21.2055 4.27882 21.365 4.33804 21.5109C4.39726 21.6567 4.49617 21.7831 4.62354 21.8756C4.75091 21.9681 4.90165 22.0231 5.05868 22.0343C5.2157 22.0455 5.37272 22.0124 5.51193 21.9389L11.4999 18.7907L17.4879 21.9389C17.6514 22.0259 17.8412 22.0549 18.0232 22.0233C18.482 21.9442 18.7904 21.5091 18.7113 21.0504L17.567 14.3821L22.4107 9.65973C22.5425 9.53053 22.6295 9.36178 22.6559 9.17721C22.7271 8.71578 22.4054 8.28863 21.944 8.22008Z" fill="#FFC21E"/>
</svg>
