<svg width="20" height="20" viewBox="0 0 20 20" fill="none" xmlns="http://www.w3.org/2000/svg">
<path d="M2.50015 10.8333H3.33348V16.6666C3.33348 17.5858 4.08098 18.3333 5.00015 18.3333H15.0001C15.9193 18.3333 16.6668 17.5858 16.6668 16.6666V10.8333H17.5001C17.6649 10.8333 17.826 10.7844 17.963 10.6928C18.1 10.6012 18.2068 10.4711 18.2699 10.3189C18.3329 10.1666 18.3494 9.99908 18.3173 9.83746C18.2852 9.67583 18.2058 9.52736 18.0893 9.41082L10.5893 1.91082C10.512 1.83336 10.4202 1.77191 10.3191 1.72999C10.218 1.68806 10.1096 1.66648 10.0001 1.66648C9.8907 1.66648 9.78233 1.68806 9.68124 1.72999C9.58014 1.77191 9.48831 1.83336 9.41098 1.91082L1.91098 9.41082C1.79447 9.52736 1.71513 9.67583 1.683 9.83746C1.65086 9.99908 1.66736 10.1666 1.73042 10.3189C1.79347 10.4711 1.90026 10.6012 2.03727 10.6928C2.17427 10.7844 2.33536 10.8333 2.50015 10.8333ZM10.0001 3.67832L15.0001 8.67832V12.5L15.001 16.6666H5.00015V8.67832L10.0001 3.67832Z" fill="white"/>
<path d="M10 15C13.0858 15 14.0842 12.0509 14.125 11.9259L12.5417 11.4084C12.535 11.4275 11.8908 13.3334 10 13.3334C8.135 13.3334 7.48333 11.4825 7.4575 11.4034L5.875 11.9259C5.91583 12.0509 6.91417 15 10 15Z" fill="white"/>
</svg>
