<svg width="27" height="27" viewBox="0 0 27 27" fill="none" xmlns="http://www.w3.org/2000/svg">
<path d="M25.4657 11.5031C25.0501 11.1968 24.5313 10.814 24.4631 10.5605C24.3892 10.2823 24.6533 9.673 24.867 9.18348C25.2332 8.34294 25.6112 7.47192 25.191 6.74759C24.7672 6.01392 23.8151 5.9059 22.896 5.80261C22.3712 5.7439 21.7186 5.67115 21.5236 5.47509C21.3276 5.27903 21.2548 4.62635 21.1961 4.10277C21.0928 3.18359 20.986 2.23273 20.2511 1.80775C19.6126 1.43681 18.6664 1.76081 17.8153 2.13175C17.3457 2.33601 16.855 2.53086 16.4371 2.5356C16.1835 2.46753 15.802 1.94862 15.4944 1.53306C14.9662 0.814677 14.3663 0 13.5 0C12.6348 0 12.0338 0.814677 11.5043 1.53311C11.1968 1.94983 10.8152 2.46874 10.456 2.54737C10.139 2.54737 9.65303 2.33607 9.18348 2.13181C8.33006 1.76087 7.38272 1.44039 6.7488 1.80781C6.01276 2.23278 5.90595 3.18365 5.80261 4.10398C5.7439 4.62872 5.67115 5.28024 5.47625 5.4763C5.28018 5.67115 4.62751 5.74511 4.10392 5.80267C3.1836 5.90595 2.23152 6.01397 1.80775 6.74765C1.38866 7.47197 1.76665 8.34184 2.13175 9.18353C2.34542 9.67306 2.61071 10.2835 2.5356 10.5617C2.46753 10.8153 1.94983 11.198 1.53306 11.5044C0.814677 12.0326 0 12.6336 0 13.5C0 14.3663 0.814677 14.9674 1.53432 15.4968C1.94989 15.8032 2.46874 16.1859 2.53686 16.4395C2.61082 16.7177 2.34669 17.3269 2.13302 17.8165C1.76676 18.657 1.38877 19.528 1.80902 20.2524C2.23278 20.986 3.18486 21.094 4.10403 21.1973C4.62877 21.256 5.28145 21.3288 5.47636 21.5249C5.67242 21.7209 5.74516 22.3736 5.80388 22.8972C5.90716 23.8164 6.01403 24.7672 6.74886 25.1922C7.38393 25.562 8.33012 25.2391 9.18353 24.8682C9.65308 24.6639 10.1356 24.4562 10.5617 24.4644C10.8153 24.5324 11.1968 25.0513 11.5044 25.4669C12.0338 26.1853 12.6337 27 13.5 27C14.3652 27 14.9662 26.1853 15.4957 25.4669C15.8032 25.0502 16.1848 24.5313 16.544 24.4515C16.861 24.4515 17.347 24.6628 17.8165 24.867C18.6723 25.238 19.6173 25.5597 20.2512 25.1922C20.9872 24.7672 21.094 23.8164 21.1974 22.896C21.2561 22.3713 21.3288 21.7198 21.5238 21.5237C21.7198 21.3276 22.3725 21.2549 22.8961 21.1962C23.8164 21.0929 24.7685 20.986 25.1922 20.2512C25.6113 19.5269 25.2334 18.657 24.8682 17.8153C24.6546 17.3258 24.3904 16.7154 24.4644 16.4383C24.5325 16.1847 25.0502 15.802 25.4669 15.4956C26.1854 14.9674 27.0001 14.3663 27.0001 13.5C27.0001 12.6336 26.1853 12.0326 25.4657 11.5031ZM10.5652 15.8478C10.5652 16.1002 10.4032 16.3244 10.1637 16.4043C10.1027 16.4254 10.0405 16.4348 9.97824 16.4348C9.79747 16.4348 9.62139 16.3503 9.50869 16.2L7.04347 12.9131V15.8478C7.04347 16.1718 6.7805 16.4348 6.4565 16.4348C6.1325 16.4348 5.86952 16.1718 5.86952 15.8478V11.1522C5.86952 10.8998 6.03152 10.6756 6.271 10.5957C6.50933 10.5148 6.77461 10.5981 6.92605 10.8L9.39126 14.0869V11.1522C9.39126 10.8282 9.65424 10.5652 9.97824 10.5652C10.3022 10.5652 10.5652 10.8282 10.5652 11.1522V15.8478ZM14.6739 12.9131C14.9979 12.9131 15.2609 13.176 15.2609 13.5C15.2609 13.824 14.9979 14.0869 14.6739 14.0869H12.9131V15.2608H14.6739C14.9979 15.2608 15.2609 15.5238 15.2609 15.8478C15.2609 16.1718 14.9979 16.4348 14.6739 16.4348H12.3261C12.0021 16.4348 11.7391 16.1718 11.7391 15.8478V11.1522C11.7391 10.8282 12.0021 10.5652 12.3261 10.5652H14.6739C14.9979 10.5652 15.2609 10.8282 15.2609 11.1522C15.2609 11.4762 14.9979 11.7392 14.6739 11.7392H12.9131V12.9131H14.6739ZM22.2867 11.2942L21.1128 15.9898C21.0494 16.2434 20.8264 16.4242 20.5658 16.4336C20.5576 16.4336 20.5493 16.4336 20.5423 16.4336C20.2899 16.4336 20.0657 16.2727 19.9847 16.0321L19.3696 14.182L18.7532 16.0333C18.6711 16.2798 18.468 16.4454 18.1733 16.4336C17.9127 16.4242 17.6897 16.2423 17.6263 15.9899L16.4524 11.2943C16.3749 10.9797 16.5651 10.6615 16.8797 10.5829C17.1884 10.503 17.5124 10.6944 17.5911 11.0102L18.2754 13.7501L18.8119 12.1406C18.9728 11.6617 19.7663 11.6617 19.9259 12.1406L20.4624 13.7501L21.1468 11.0102C21.2242 10.6944 21.5412 10.5042 21.8582 10.5829C22.1752 10.6615 22.3654 10.9808 22.2867 11.2942Z" fill="white"/>
</svg>
