<svg width="58" height="58" viewBox="0 0 58 58" fill="none" xmlns="http://www.w3.org/2000/svg">
<g clip-path="url(#clip0)">
<path d="M57.4841 16.2045C57.2913 15.9631 56.9837 15.8437 56.6786 15.8917L38.588 18.7347C38.1187 18.8084 37.7981 19.2486 37.8718 19.7179C37.9455 20.1871 38.3857 20.5077 38.855 20.4341L51.8347 18.3944L24.1872 30.9306L15.6334 24.0833L31.3261 21.6172C31.7954 21.5434 32.1161 21.1032 32.0423 20.6339C31.9687 20.1647 31.5285 19.8439 31.0591 19.9177L13.44 22.6865C13.1033 22.7394 12.8296 22.986 12.7422 23.3155C12.6547 23.6449 12.7699 23.9949 13.0359 24.2078L23.2513 32.3851L24.672 43.7611C24.6735 43.7729 24.6758 43.7833 24.6786 43.7928C24.7075 43.9696 24.7894 44.1372 24.9227 44.2681C25.0062 44.35 25.1033 44.4124 25.2079 44.4539C25.4127 44.5353 25.6457 44.5366 25.8572 44.4482L34.0466 41.0264L43.7941 48.8292C43.8615 48.8831 43.9356 48.926 44.014 48.9571C44.1831 49.0243 44.3715 49.0369 44.5517 48.9892C44.8154 48.9194 45.0304 48.7287 45.131 48.4753L57.6115 17.059C57.7256 16.772 57.6769 16.4457 57.4841 16.2045ZM28.2295 34.9331C28.0838 35.0301 27.9711 35.1691 27.9064 35.3318L25.9638 40.2218L24.9937 32.4537L46.8855 22.5274L28.2295 34.9331ZM27.0795 42.0731L29.0759 37.0476L32.5162 39.8015L27.0795 42.0731ZM43.9615 46.7596L30.1625 35.7137L54.8789 19.2781L43.9615 46.7596Z" fill="#8C6239"/>
<path d="M19.1059 33.0067C18.9177 32.5705 18.4117 32.3695 17.9753 32.5576L7.54823 37.0555C7.11205 37.2437 6.91097 37.7498 7.09909 38.1861C7.1933 38.4042 7.36687 38.5635 7.57144 38.6447C7.776 38.726 8.01156 38.7293 8.2297 38.6352L18.6568 34.1372C19.0929 33.9491 19.294 33.443 19.1059 33.0067Z" fill="#8C6239"/>
<path d="M5.2163 38.9983C5.028 38.5623 4.52199 38.3613 4.08576 38.5493L1.51674 39.6575C1.08057 39.8457 0.879481 40.3518 1.0676 40.7881C1.16173 41.0062 1.3353 41.1655 1.53987 41.2467C1.74444 41.328 1.98003 41.3312 2.19814 41.2371L4.76716 40.1289C5.20333 39.9408 5.40442 39.4346 5.2163 38.9983Z" fill="#8C6239"/>
<path d="M12.7046 44.0475C12.615 43.8397 12.4428 43.6723 12.2325 43.5887C12.0214 43.5049 11.7821 43.5088 11.5743 43.5984C11.3665 43.6881 11.1994 43.8595 11.1156 44.0706C11.032 44.2808 11.0356 44.521 11.1253 44.7288C11.2149 44.9366 11.3871 45.104 11.5974 45.1875C11.8076 45.2711 12.0478 45.2675 12.2555 45.1778C12.4633 45.0882 12.6308 44.916 12.7143 44.7057C12.7982 44.4947 12.7943 44.2552 12.7046 44.0475Z" fill="#8C6239"/>
<path d="M21.0152 40.4622C20.8272 40.0261 20.3212 39.8251 19.8847 40.0131L14.3618 42.3955C13.9256 42.5836 13.7245 43.0898 13.9126 43.526C14.0067 43.7441 14.1803 43.9034 14.3849 43.9847C14.5894 44.0659 14.825 44.0691 15.0431 43.9751L20.5661 41.5927C21.0022 41.4046 21.2033 40.8984 21.0152 40.4622Z" fill="#8C6239"/>
<path d="M34.7776 45.5784C34.5893 45.1423 34.0833 44.9413 33.6471 45.1293L28.1092 47.5182C27.673 47.7063 27.4719 48.2125 27.66 48.6488C27.7542 48.8668 27.9277 49.0262 28.1323 49.1075C28.3368 49.1887 28.5724 49.1919 28.7905 49.0979L34.3284 46.709C34.7646 46.5208 34.9657 46.0147 34.7776 45.5784Z" fill="#8C6239"/>
<path d="M35.334 19.8996C35.2444 19.6918 35.0721 19.5244 34.8618 19.4409C34.6516 19.3573 34.4114 19.3609 34.2036 19.4506C33.996 19.5402 33.8284 19.7124 33.7446 19.9235C33.661 20.1337 33.665 20.3731 33.7546 20.5809C33.8439 20.7895 34.0165 20.9561 34.2267 21.0397C34.437 21.1232 34.6769 21.1204 34.8849 21.0299C35.0926 20.9403 35.2598 20.7689 35.3434 20.5586C35.4272 20.3476 35.4236 20.1074 35.334 19.8996Z" fill="#8C6239"/>
</g>
<defs>
<clipPath id="clip0">
<rect x="17" width="44.0405" height="44.0405" transform="rotate(21.6661 17 0)" fill="white"/>
</clipPath>
</defs>
</svg>
