<svg width="37" height="29" viewBox="0 0 37 29" fill="none" xmlns="http://www.w3.org/2000/svg">
<path d="M1.06193 0L34.932 2.75182L37 24.9781L0 29L1.06193 0Z" fill="#FFC21E"/>
<path d="M25.7364 10.8965L20.7774 10.1758L18.5606 5.68165C18.5001 5.5586 18.4005 5.45899 18.2774 5.39844C17.9688 5.2461 17.5938 5.37305 17.4395 5.68165L15.2227 10.1758L10.2637 10.8965C10.127 10.916 10.002 10.9805 9.90632 11.0781C9.79062 11.1971 9.72686 11.357 9.72906 11.5229C9.73126 11.6888 9.79923 11.8471 9.91804 11.9629L13.5059 15.4609L12.6583 20.4004C12.6384 20.5153 12.6511 20.6335 12.695 20.7415C12.7388 20.8496 12.8121 20.9432 12.9065 21.0117C13.0008 21.0802 13.1125 21.1209 13.2288 21.1292C13.3451 21.1375 13.4614 21.113 13.5645 21.0586L18.0001 18.7266L22.4356 21.0586C22.5567 21.1231 22.6973 21.1445 22.8321 21.1211C23.1719 21.0625 23.4005 20.7402 23.3419 20.4004L22.4942 15.4609L26.0821 11.9629C26.1798 11.8672 26.2442 11.7422 26.2637 11.6055C26.3165 11.2637 26.0782 10.9473 25.7364 10.8965Z" fill="white"/>
</svg>
