<svg width="37" height="36" viewBox="0 0 37 36" fill="none" xmlns="http://www.w3.org/2000/svg">
<path d="M7.38135 4.17426L5.31608 8.6939C5.31608 8.6939 2.20322 6.74836 1.24542 3.90488C1.21549 3.90488 5.31608 3.30625 7.38135 4.17426Z" fill="#EAEAF0"/>
<path d="M2.29316 20.0678C4.08904 24.8868 7.89033 29.6159 17.2589 30.8731C21.8982 31.5016 26.1185 30.7533 28.8124 28.5983C29.1715 28.3289 29.4709 28.0296 29.7702 27.6704C29.83 27.6704 29.8899 27.7003 29.9198 27.7003C32.4341 28.0296 34.5891 27.9697 35.6367 27.5507C25.3703 24.2283 18.7854 16.2067 19.5935 9.86123C20.4016 3.51578 16.6602 1.60017 13.5773 1.1512C8.36923 0.402913 4.83733 3.54571 5.2863 8.69391C2.68227 9.7415 0.58707 15.5781 2.29316 20.0678Z" fill="#F8F8F8"/>
<path d="M11.2725 6.29939C10.7766 6.29939 10.3745 5.89737 10.3745 5.40145C10.3745 4.90553 10.7766 4.50351 11.2725 4.50351C11.7684 4.50351 12.1704 4.90553 12.1704 5.40145C12.1704 5.89737 11.7684 6.29939 11.2725 6.29939Z" fill="#EAEAF0"/>
<path d="M36.1453 27.5207C36.1453 27.3112 35.9957 27.1017 35.7861 27.0418C32.7032 26.0541 29.7999 24.5575 27.2258 22.612C26.9863 22.4324 26.6571 22.4923 26.4775 22.7018C26.2979 22.9412 26.3578 23.2705 26.5673 23.4501C28.7223 25.0664 31.057 26.3833 33.5712 27.3711C32.3141 27.401 31.057 27.3412 29.7999 27.1616C25.5197 26.5929 20.4613 24.9766 18.845 22.6719C18.6654 22.4324 18.3361 22.4025 18.1266 22.5521C17.8872 22.7317 17.8572 23.031 18.0069 23.2705C19.7729 25.8147 24.6217 27.3711 28.6325 28.0595C26.6271 29.7656 23.1551 31.1125 17.2885 30.3642C16.7498 30.3044 16.211 30.2146 15.7022 30.0948C9.02749 28.8377 4.89696 25.5453 2.77183 19.8882C1.09567 15.4285 3.28066 10.0408 5.46565 9.17281C5.76497 9.02315 5.7949 8.81363 5.7949 8.63404C5.58538 6.35926 6.21394 4.41372 7.56085 3.1566C8.96762 1.83962 11.0628 1.30086 13.4873 1.66003C16.4505 2.07907 19.8327 3.84502 19.0844 9.77143C18.6654 13.0639 20.0722 16.7754 23.0653 20.1876C23.2449 20.3971 23.5741 20.427 23.8136 20.2474C24.0231 20.0678 24.053 19.7386 23.8735 19.4991C21.1198 16.3563 19.7429 12.8843 20.132 9.92109C21.03 2.79742 16.4505 1.03147 13.6369 0.612433C10.9132 0.223326 8.48872 0.851884 6.8425 2.37838C6.54318 2.64777 6.2738 2.94708 6.06428 3.27633C3.90922 2.97701 1.24533 3.33619 1.1256 3.36612C0.826286 3.39605 0.586838 3.69537 0.706562 4.05454C0.88615 4.53344 1.09567 4.98241 1.36505 5.43139C1.51471 5.67084 1.84396 5.76063 2.0834 5.61097C2.32286 5.46132 2.41265 5.13207 2.26299 4.89262C2.14327 4.71303 2.05347 4.50351 1.96368 4.32392C3.131 4.2042 4.32826 4.17427 5.49558 4.26406C5.01668 5.31166 4.7473 6.44905 4.7473 7.61637C4.35819 7.28713 3.96908 6.95788 3.60991 6.59871C3.40039 6.38919 3.07114 6.38919 2.86162 6.56878C2.6521 6.7783 2.6521 7.10754 2.83169 7.31706C3.28066 7.79596 3.7895 8.215 4.29833 8.60411C1.81403 10.4299 0.167797 15.9074 1.78409 20.2175C3.96908 26.0541 8.33907 29.586 15.0736 30.9928V31.8608C14.6247 31.771 14.1757 31.7111 13.7267 31.6812C13.4274 31.6812 13.2179 31.9207 13.2179 32.22C13.2179 32.5193 13.4573 32.7288 13.7566 32.7288C14.5049 32.6989 16.2709 33.1778 17.5879 33.5669C17.8572 33.6567 18.1566 33.507 18.2464 33.2376C18.3361 32.9683 18.1865 32.6689 17.9171 32.5791C17.9171 32.5791 16.8994 32.2798 16.1512 32.0703V31.1424C16.4804 31.2023 16.8396 31.2622 17.1988 31.2921C18.0069 31.4118 18.7552 31.4717 19.5334 31.5016V34.1056C19.1144 34.0158 18.5457 33.956 18.1865 33.9261C17.8872 33.9261 17.6777 34.1655 17.6777 34.4648C17.6777 34.7641 17.9171 34.9737 18.2164 34.9737C18.9647 34.9437 20.7307 35.4226 22.0476 35.8117C22.317 35.9015 22.6163 35.7519 22.7061 35.4526C22.7959 35.1832 22.6463 34.8839 22.347 34.7941C22.0177 34.7043 21.3293 34.4948 20.581 34.2852V31.4417C24.5918 31.4118 27.9142 30.2445 30.0094 28.0595C30.9971 28.1792 31.9849 28.269 32.9726 28.269C34.2297 28.269 35.2474 28.1493 35.8759 27.8799C36.0555 27.9398 36.1752 27.7602 36.1453 27.5207ZM25.5197 22.4324C25.4 22.4324 25.2802 22.3725 25.1605 22.3127C24.8911 22.0732 24.6517 21.8338 24.3823 21.5943C24.1728 21.3848 24.1728 21.0556 24.3524 20.846C24.5619 20.6365 24.8911 20.6365 25.1006 20.8161C25.3401 21.0556 25.5795 21.2651 25.8489 21.5045C26.0584 21.6841 26.0884 22.0134 25.9088 22.2528C25.819 22.3725 25.6693 22.4324 25.5197 22.4324ZM5.10648 22.8814C4.68744 22.2229 4.29833 21.5644 3.99902 20.846C3.87929 20.5767 3.99901 20.2773 4.2684 20.1576C4.53778 20.0379 4.83709 20.1576 4.95682 20.427C5.25613 21.0855 5.58538 21.7141 6.00442 22.3127C6.15407 22.5521 6.09421 22.8814 5.85476 23.031C5.46565 23.2406 5.19627 23.031 5.10648 22.8814ZM11.2723 6.80823C12.0506 6.80823 12.709 6.17967 12.709 5.37152C12.709 4.56337 12.0805 3.93482 11.2723 3.93482C10.4642 3.93482 9.83563 4.56337 9.83563 5.37152C9.86557 6.17967 10.4941 6.80823 11.2723 6.80823ZM11.2723 5.76063C11.0628 5.76063 10.8832 5.58104 10.8832 5.37152C10.8832 5.162 11.0628 4.98241 11.2723 4.98241C11.4819 4.98241 11.6614 5.162 11.6614 5.37152C11.6614 5.58104 11.4819 5.76063 11.2723 5.76063Z" fill="#FFC21E"/>
</svg>
