<svg width="24" height="34" viewBox="0 0 24 34" fill="none" xmlns="http://www.w3.org/2000/svg">
<rect x="3.33984" y="12.2175" width="15.5587" height="6.22347" fill="white"/>
<path d="M7.63132 14.7882C7.63132 15.2883 7.22618 15.6935 6.72606 15.6935C6.2262 15.6935 5.8208 15.2883 5.8208 14.7882C5.8208 14.2884 6.2262 13.883 6.72606 13.883C7.22618 13.883 7.63132 14.2884 7.63132 14.7882Z" fill="#00CCBA"/>
<path d="M17.3305 14.7882C17.3305 15.2883 16.9254 15.6935 16.4253 15.6935C15.9254 15.6935 15.52 15.2883 15.52 14.7882C15.52 14.2884 15.9254 13.883 16.4253 13.883C16.9254 13.883 17.3305 14.2884 17.3305 14.7882Z" fill="#00CCBA"/>
<path d="M23.0402 27.5329L21.3979 8.65176H17.0719V5.49623C17.0719 2.46067 14.6112 0 11.5756 0C8.54034 0 6.07942 2.46067 6.07942 5.49623V8.65176H1.75998L0.117681 27.5329C0.0704475 28.0747 0.253066 28.6114 0.620575 29.0123C0.988337 29.4129 1.50714 29.641 2.05096 29.6407H21.1069C21.6507 29.641 22.1698 29.4129 22.5373 29.0123C22.9048 28.6114 23.0874 28.0747 23.0402 27.5329ZM7.37265 5.49623C7.37265 3.17498 9.2544 1.29323 11.5756 1.29323C13.8969 1.29323 15.7786 3.17498 15.7786 5.49623V8.65176H7.37265V5.49623ZM6.72603 16.9865C5.51186 16.9865 4.52754 16.0022 4.52754 14.788C4.52754 13.5739 5.51186 12.5895 6.72603 12.5895C7.9402 12.5895 8.92452 13.5739 8.92452 14.788C8.92099 16.0007 7.93894 16.983 6.72603 16.9865ZM16.4253 16.9865C15.2111 16.9865 14.2268 16.0022 14.2268 14.788C14.2268 13.5739 15.2111 12.5895 16.4253 12.5895C17.6394 12.5895 18.6237 13.5739 18.6237 14.788C18.6202 16.0007 17.6382 16.983 16.4253 16.9865Z" fill="#00CCBA"/>
<rect x="1.08105" y="31.3847" width="20.9229" height="2.61537" rx="1.30768" fill="#00CCBA"/>
<path d="M6.31201 21.7949L9.04364 23.628C9.80361 24.1379 10.6981 24.4103 11.6134 24.4103V24.4103C12.5683 24.4103 13.4997 24.1138 14.279 23.5618L16.7735 21.7949" stroke="white" stroke-width="2" stroke-linecap="round"/>
</svg>
