<svg width="28" height="39" viewBox="0 0 28 39" fill="none" xmlns="http://www.w3.org/2000/svg">
<path d="M9.51355 16.9629C9.51355 17.5365 9.04883 18.0013 8.47516 18.0013C7.90178 18.0013 7.43677 17.5365 7.43677 16.9629C7.43677 16.3895 7.90178 15.9245 8.47516 15.9245C9.04883 15.9245 9.51355 16.3895 9.51355 16.9629Z" fill="#00CCBA"/>
<path d="M20.639 16.9629C20.639 17.5365 20.1743 18.0013 19.6007 18.0013C19.0273 18.0013 18.5623 17.5365 18.5623 16.9629C18.5623 16.3895 19.0273 15.9245 19.6007 15.9245C20.1743 15.9245 20.639 16.3895 20.639 16.9629Z" fill="#00CCBA"/>
<path d="M27.1885 31.5821L25.3047 9.92414H20.3425V6.30454C20.3425 2.82256 17.5199 0 14.0379 0C10.5562 0 7.73339 2.82256 7.73339 6.30454V9.92414H2.77871L0.894882 31.5821C0.840702 32.2036 1.05018 32.8192 1.47174 33.279C1.89358 33.7386 2.48869 34.0002 3.11248 33.9999H24.9709C25.5947 34.0002 26.1901 33.7386 26.6117 33.279C27.0332 32.8192 27.2427 32.2036 27.1885 31.5821ZM9.21681 6.30454C9.21681 3.64191 11.3753 1.48342 14.0379 1.48342C16.7006 1.48342 18.859 3.64191 18.859 6.30454V9.92414H9.21681V6.30454ZM8.4751 19.4847C7.08237 19.4847 5.95329 18.3556 5.95329 16.9629C5.95329 15.5701 7.08237 14.441 8.4751 14.441C9.86784 14.441 10.9969 15.5701 10.9969 16.9629C10.9929 18.3539 9.86639 19.4806 8.4751 19.4847ZM19.6008 19.4847C18.208 19.4847 17.0789 18.3556 17.0789 16.9629C17.0789 15.5701 18.208 14.441 19.6008 14.441C20.9935 14.441 22.1226 15.5701 22.1226 16.9629C22.1185 18.3539 20.992 19.4806 19.6008 19.4847Z" fill="#00CCBA"/>
<rect x="2" y="36" width="24" height="3" rx="1.5" fill="#00CCBA"/>
<path d="M8 25L11.1334 27.1026C12.0051 27.6876 13.0312 28 14.081 28V28C15.1764 28 16.2448 27.6599 17.1387 27.0268L20 25" stroke="white" stroke-width="2" stroke-linecap="round"/>
</svg>
