<svg width="14" height="14" viewBox="0 0 14 14" fill="none" xmlns="http://www.w3.org/2000/svg">
<path d="M5.29401 13.998C4.85901 13.998 4.44701 13.795 4.18301 13.445L0.610014 8.72396C0.499547 8.57816 0.4189 8.41202 0.372681 8.23504C0.326463 8.05805 0.315581 7.87369 0.340656 7.6925C0.365731 7.51131 0.426273 7.33683 0.51882 7.17905C0.611367 7.02127 0.734104 6.88328 0.880014 6.77296C1.02587 6.66218 1.19216 6.58128 1.36934 6.53489C1.54653 6.4885 1.73112 6.47753 1.91255 6.50261C2.09398 6.52769 2.26868 6.58834 2.42663 6.68106C2.58458 6.77378 2.72268 6.89677 2.83301 7.04296L5.18401 10.147L11.095 0.654962C11.291 0.341561 11.6034 0.118708 11.9635 0.0352852C12.3236 -0.0481378 12.7021 0.0146808 13.016 0.209962C13.669 0.615962 13.87 1.47596 13.462 2.12996L6.47801 13.34C6.35879 13.5322 6.19446 13.6924 5.99929 13.8067C5.80411 13.921 5.58398 13.986 5.35801 13.996C5.33601 13.998 5.31601 13.998 5.29401 13.998Z" fill="#515151"/>
</svg>
