<svg width="37" height="29" viewBox="0 0 37 29" fill="none" xmlns="http://www.w3.org/2000/svg">
<path d="M1.06193 0L34.932 2.75182L37 24.9781L0 29L1.06193 0Z" fill="#EC4848"/>
<path d="M15.8906 13.5625C15.5997 13.5625 15.3633 13.7989 15.3633 14.0898C15.3633 14.3808 15.5997 14.6172 15.8906 14.6172C16.1816 14.6172 16.418 14.3808 16.418 14.0898C16.418 13.7989 16.1816 13.5625 15.8906 13.5625Z" fill="white"/>
<path d="M20.1094 17.7812C19.8184 17.7812 19.582 18.0176 19.582 18.3086C19.582 18.5995 19.8184 18.8359 20.1094 18.8359C20.4003 18.8359 20.6367 18.5995 20.6367 18.3086C20.6367 18.0176 20.4003 17.7812 20.1094 17.7812Z" fill="white"/>
<path d="M25.418 10.3633H10.582C9.70966 10.3633 9 11.0729 9 11.9453V20.418C9 21.2903 9.70966 22 10.582 22H25.418C26.2903 22 27 21.2903 27 20.418V11.9453C27 11.0729 26.2903 10.3633 25.418 10.3633ZM14.3086 14.0898C14.3086 13.2175 15.0183 12.5078 15.8906 12.5078C16.763 12.5078 17.4727 13.2175 17.4727 14.0898C17.4727 14.9622 16.763 15.6719 15.8906 15.6719C15.0183 15.6719 14.3086 14.9622 14.3086 14.0898ZM15.5981 19.8021C15.3555 19.6403 15.2901 19.3134 15.4518 19.0708L19.6706 12.7427C19.8313 12.5001 20.1583 12.4342 20.4019 12.5964C20.6444 12.7581 20.7098 13.0851 20.5481 13.3277L16.3294 19.6558C16.1703 19.8948 15.8445 19.9654 15.5981 19.8021ZM20.1094 19.8906C19.237 19.8906 18.5273 19.181 18.5273 18.3086C18.5273 17.4362 19.237 16.7266 20.1094 16.7266C20.9817 16.7266 21.6914 17.4362 21.6914 18.3086C21.6914 19.181 20.9817 19.8906 20.1094 19.8906Z" fill="white"/>
<path d="M19.4236 6.25981C19.5223 6.05355 19.5821 5.82556 19.5821 5.58203C19.5821 4.70966 18.8725 4 18.0001 4C17.1277 4 16.4181 4.70966 16.4181 5.58203C16.4181 5.82556 16.4779 6.05355 16.5766 6.25981L13.563 9.30859H15.0544L17.3223 7.00551C17.5286 7.10419 17.7566 7.16406 18.0001 7.16406C18.2436 7.16406 18.4716 7.10419 18.6779 7.00551L20.9458 9.30859H22.4372L19.4236 6.25981Z" fill="white"/>
</svg>
