<svg width="31" height="30" viewBox="0 0 31 30" fill="none" xmlns="http://www.w3.org/2000/svg">
<path d="M30.1547 22.362C30.1547 22.1886 30.0308 22.0152 29.8574 21.9657C27.306 21.1482 24.9032 19.9097 22.773 18.2996C22.5748 18.151 22.3023 18.2005 22.1537 18.3739C22.0051 18.5721 22.0546 18.8445 22.228 18.9932C24.0115 20.3308 25.9436 21.4207 28.0244 22.2381C26.984 22.2629 25.9436 22.2134 24.9032 22.0647C21.361 21.5941 17.1748 20.2565 15.8371 18.3491C15.6885 18.151 15.416 18.1262 15.2426 18.25C15.0445 18.3987 15.0197 18.6464 15.1435 18.8445C16.605 20.9501 20.6179 22.2381 23.9372 22.8079C22.2775 24.2198 19.4041 25.3345 14.5491 24.7152C14.1032 24.6657 13.6573 24.5914 13.2362 24.4923C7.71231 23.4519 4.29394 20.7271 2.53521 16.0454C1.14805 12.3546 2.95632 7.89585 4.76459 7.1775C5.01229 7.05364 5.03707 6.88025 5.03707 6.73162C4.86367 4.84904 5.38385 3.23894 6.49854 2.19857C7.66277 1.10865 9.39672 0.662777 11.4032 0.960026C13.8555 1.30682 16.6546 2.76829 16.0353 7.67291C15.6885 10.3977 16.8527 13.4693 19.3298 16.2931C19.4784 16.4665 19.7509 16.4913 19.9491 16.3427C20.1225 16.1941 20.1473 15.9216 19.9986 15.7234C17.7197 13.1225 16.5803 10.2491 16.9023 7.79677C17.6454 1.90132 13.8555 0.439839 11.527 0.0930483C9.27287 -0.228972 7.26644 0.291215 5.90404 1.55453C5.65634 1.77746 5.4334 2.02517 5.26 2.29765C3.4765 2.04994 1.2719 2.34719 1.17282 2.37196C0.925112 2.39673 0.726946 2.64444 0.826029 2.94169C0.974653 3.33802 1.14805 3.70958 1.37099 4.08115C1.49484 4.27931 1.76732 4.35362 1.96549 4.22977C2.16365 4.10592 2.23796 3.83344 2.11411 3.63527C2.01503 3.48665 1.94071 3.31325 1.8664 3.16463C2.83246 3.06554 3.8233 3.04077 4.78936 3.11509C4.39302 3.98206 4.17009 4.92335 4.17009 5.88941C3.84807 5.61694 3.52604 5.34446 3.2288 5.04721C3.0554 4.87381 2.78292 4.87381 2.60953 5.02244C2.43613 5.19583 2.43613 5.46831 2.58475 5.64171C2.95632 6.03804 3.37742 6.38483 3.79852 6.70685C1.74255 8.21787 0.380154 12.7509 1.71778 16.3179C3.52605 21.1482 7.14258 24.0712 12.716 25.2354V25.9538C12.3444 25.8794 11.9729 25.8299 11.6013 25.8051C11.3536 25.8051 11.1802 26.0033 11.1802 26.251C11.1802 26.4987 11.3784 26.6721 11.6261 26.6721C12.2454 26.6473 13.7068 27.0437 14.7968 27.3657C15.0197 27.44 15.2674 27.3162 15.3417 27.0932C15.416 26.8703 15.2922 26.6226 15.0692 26.5483C15.0692 26.5483 14.227 26.3005 13.6078 26.1272V25.3593C13.8802 25.4088 14.1775 25.4583 14.4747 25.4831C15.1436 25.5822 15.7628 25.6317 16.4069 25.6565V27.8116C16.0601 27.7373 15.5894 27.6877 15.2922 27.6629C15.0445 27.6629 14.8711 27.8611 14.8711 28.1088C14.8711 28.3565 15.0692 28.5299 15.3169 28.5299C15.9362 28.5051 17.3977 28.9015 18.4876 29.2235C18.7105 29.2978 18.9583 29.174 19.0326 28.9263C19.1069 28.7033 18.983 28.4556 18.7353 28.3813C18.4628 28.307 17.8931 28.1336 17.2738 27.9602V25.607C20.5931 25.5822 23.3427 24.6161 25.0766 22.8079C25.8941 22.9069 26.7115 22.9813 27.5289 22.9813C28.5693 22.9813 29.4115 22.8822 29.9317 22.6592C30.0803 22.7088 30.1794 22.5602 30.1547 22.362ZM21.361 18.151C21.2619 18.151 21.1629 18.1014 21.0638 18.0519C20.8408 17.8537 20.6427 17.6555 20.4197 17.4574C20.2463 17.284 20.2463 17.0115 20.395 16.8381C20.5684 16.6647 20.8408 16.6647 21.0142 16.8133C21.2124 17.0115 21.4106 17.1849 21.6335 17.3831C21.8069 17.5317 21.8317 17.8042 21.683 18.0023C21.6087 18.1014 21.4849 18.151 21.361 18.151ZM4.46734 18.5225C4.12054 17.9776 3.79852 17.4326 3.55082 16.8381C3.45173 16.6152 3.55082 16.3675 3.77375 16.2684C3.99669 16.1693 4.2444 16.2684 4.34348 16.4913C4.59119 17.0363 4.86367 17.5565 5.21046 18.0519C5.33431 18.25 5.28477 18.5225 5.08661 18.6464C4.76459 18.8198 4.54165 18.6464 4.46734 18.5225ZM9.57012 5.2206C10.2142 5.2206 10.7591 4.70042 10.7591 4.0316C10.7591 3.36279 10.2389 2.84261 9.57012 2.84261C8.90131 2.84261 8.38112 3.36279 8.38112 4.0316C8.40589 4.70042 8.92608 5.2206 9.57012 5.2206ZM9.57012 4.35362C9.39672 4.35362 9.2481 4.205 9.2481 4.0316C9.2481 3.85821 9.39672 3.70958 9.57012 3.70958C9.74352 3.70958 9.89214 3.85821 9.89214 4.0316C9.89214 4.205 9.74352 4.35362 9.57012 4.35362Z" fill="#00CCBA"/>
</svg>
