<svg width="19" height="11" viewBox="0 0 19 11" fill="none" xmlns="http://www.w3.org/2000/svg">
<path d="M18.631 4.43426C18.622 4.33582 18.5764 4.24434 18.5032 4.17789C18.4301 4.11144 18.3346 4.07486 18.2358 4.07537H9.94687C9.40066 1.98209 7.49953 0.43103 5.23741 0.43103C2.55046 0.43103 0.36499 2.6165 0.36499 5.30345C0.36499 7.99103 2.55046 10.1759 5.23741 10.1759C7.64086 10.1759 9.63754 8.42615 10.0338 6.13505H11.8797V8.76362H11.8827C11.8898 8.86381 11.9346 8.95757 12.0081 9.02606C12.0816 9.09455 12.1783 9.13269 12.2787 9.1328C12.2842 9.1328 12.289 9.13154 12.2945 9.13133V9.13364H13.5755V9.13301C13.6759 9.13299 13.7727 9.09489 13.8462 9.02638C13.9197 8.95788 13.9645 8.86406 13.9715 8.76383H13.9749V6.13526H15.0205V10.1994H15.0236C15.0309 10.2996 15.0758 10.3934 15.1493 10.4619C15.2228 10.5304 15.3194 10.5687 15.4199 10.569L15.4243 10.5686H16.7078L16.7122 10.569C16.8127 10.5686 16.9093 10.5304 16.9828 10.4618C17.0563 10.3933 17.1011 10.2996 17.1085 10.1994H17.1117V6.13505H18.2362V6.13463C18.342 6.13446 18.4434 6.09234 18.5182 6.01751C18.593 5.94267 18.6351 5.84123 18.6352 5.73542H18.635V4.43405H18.631V4.43426ZM5.23741 8.13173C3.69643 8.13173 2.44273 6.87719 2.44273 5.33642C2.44273 3.79544 3.69643 2.54111 5.23741 2.54111C6.77818 2.54111 8.03125 3.79544 8.03125 5.33642C8.03146 6.8774 6.77818 8.13173 5.23741 8.13173Z" fill="#00CCBA"/>
</svg>
