<svg width="37" height="29" viewBox="0 0 37 29" fill="none" xmlns="http://www.w3.org/2000/svg">
<path d="M1.06193 0L34.932 2.75182L37 24.9781L0 29L1.06193 0Z" fill="#00CCBA"/>
<g clip-path="url(#clip0)">
<path d="M26.9203 13.0948C26.6279 12.8792 26.2627 12.6099 26.2148 12.4314C26.1628 12.2357 26.3486 11.8069 26.499 11.4624C26.7567 10.871 27.0227 10.258 26.727 9.74831C26.4288 9.23202 25.7588 9.156 25.112 9.08332C24.7427 9.042 24.2834 8.99081 24.1463 8.85284C24.0083 8.71487 23.9571 8.25558 23.9158 7.88713C23.8431 7.24031 23.7679 6.57118 23.2508 6.27212C22.8014 6.01109 22.1356 6.23909 21.5367 6.50012C21.2062 6.64386 20.8609 6.78098 20.5668 6.78431C20.3884 6.73641 20.1199 6.37125 19.9035 6.07882C19.5318 5.57329 19.1096 5 18.5 5C17.8911 5 17.4682 5.57329 17.0956 6.07886C16.8792 6.3721 16.6107 6.73726 16.3579 6.79259C16.1349 6.79259 15.7929 6.6439 15.4624 6.50016C14.8619 6.23913 14.1952 6.01361 13.7492 6.27216C13.2312 6.57122 13.156 7.24035 13.0833 7.88799C13.042 8.25725 12.9908 8.71572 12.8537 8.85369C12.7157 8.99081 12.2564 9.04285 11.8879 9.08336C11.2403 9.15604 10.5703 9.23205 10.2721 9.74834C9.97721 10.2581 10.2432 10.8702 10.5001 11.4625C10.6505 11.807 10.8372 12.2365 10.7843 12.4323C10.7364 12.6107 10.3721 12.8801 10.0788 13.0957C9.57329 13.4674 9 13.8903 9 14.5C9 15.1096 9.57329 15.5326 10.0797 15.9052C10.3721 16.1208 10.7373 16.3901 10.7852 16.5685C10.8372 16.7643 10.6514 17.193 10.501 17.5375C10.2433 18.129 9.97729 18.7419 10.273 19.2517C10.5712 19.7679 11.2412 19.844 11.888 19.9166C12.2573 19.958 12.7166 20.0092 12.8537 20.1471C12.9917 20.2851 13.0429 20.7444 13.0842 21.1128C13.1569 21.7597 13.2321 22.4288 13.7492 22.7278C14.1961 22.9881 14.8619 22.7609 15.4625 22.4998C15.7929 22.3561 16.1324 22.2099 16.4323 22.2157C16.6107 22.2636 16.8792 22.6287 17.0957 22.9211C17.4682 23.4267 17.8904 24 18.5 24C19.1089 24 19.5318 23.4267 19.9044 22.9211C20.1208 22.6279 20.3893 22.2627 20.6421 22.2066C20.8651 22.2066 21.2071 22.3553 21.5376 22.499C22.1398 22.7601 22.8048 22.9864 23.2508 22.7278C23.7688 22.4288 23.844 21.7597 23.9167 21.112C23.958 20.7428 24.0092 20.2843 24.1463 20.1463C24.2843 20.0083 24.7436 19.9571 25.1121 19.9158C25.7597 19.8431 26.4297 19.7679 26.7279 19.2508C27.0228 18.7411 26.7568 18.129 26.4999 17.5367C26.3495 17.1922 26.1636 16.7627 26.2157 16.5677C26.2636 16.3893 26.6279 16.12 26.9212 15.9043C27.4267 15.5326 28 15.1096 28 14.5C28 13.8903 27.4267 13.4674 26.9203 13.0948ZM16.4348 16.1522C16.4348 16.3298 16.3208 16.4875 16.1523 16.5437C16.1093 16.5586 16.0655 16.5652 16.0217 16.5652C15.8945 16.5652 15.7706 16.5057 15.6913 16.4L13.9565 14.087V16.1522C13.9565 16.3802 13.7715 16.5652 13.5435 16.5652C13.3155 16.5652 13.1304 16.3802 13.1304 16.1522V12.8478C13.1304 12.6702 13.2444 12.5125 13.4129 12.4563C13.5806 12.3993 13.7673 12.4579 13.8739 12.6L15.6087 14.913V12.8478C15.6087 12.6198 15.7937 12.4348 16.0217 12.4348C16.2497 12.4348 16.4348 12.6198 16.4348 12.8478V16.1522ZM19.3261 14.087C19.5541 14.087 19.7391 14.272 19.7391 14.5C19.7391 14.728 19.5541 14.913 19.3261 14.913H18.087V15.7391H19.3261C19.5541 15.7391 19.7391 15.9242 19.7391 16.1522C19.7391 16.3802 19.5541 16.5652 19.3261 16.5652H17.6739C17.4459 16.5652 17.2608 16.3802 17.2608 16.1522V12.8478C17.2608 12.6198 17.4459 12.4348 17.6739 12.4348H19.3261C19.5541 12.4348 19.7391 12.6198 19.7391 12.8478C19.7391 13.0758 19.5541 13.2609 19.3261 13.2609H18.087V14.087H19.3261ZM24.6832 12.9478L23.8572 16.2521C23.8126 16.4305 23.6556 16.5577 23.4722 16.5644C23.4665 16.5644 23.4606 16.5644 23.4557 16.5644C23.2781 16.5644 23.1203 16.4512 23.0633 16.2818L22.6304 14.9799L22.1967 16.2827C22.1389 16.4562 21.996 16.5727 21.7886 16.5644C21.6052 16.5578 21.4483 16.4298 21.4037 16.2521L20.5776 12.9478C20.5231 12.7264 20.6569 12.5025 20.8783 12.4472C21.0956 12.391 21.3236 12.5257 21.3789 12.7479L21.8605 14.676L22.238 13.5434C22.3512 13.2064 22.9096 13.2064 23.022 13.5434L23.3995 14.676L23.8811 12.7479C23.9356 12.5257 24.1586 12.3918 24.3817 12.4472C24.6048 12.5025 24.7386 12.7272 24.6832 12.9478Z" fill="white"/>
</g>
<defs>
<clipPath id="clip0">
<rect x="9" y="5" width="19" height="19" fill="white"/>
</clipPath>
</defs>
</svg>
