<svg width="49" height="49" viewBox="0 0 49 49" fill="none" xmlns="http://www.w3.org/2000/svg">
<path d="M48.9243 37.27C48.9243 36.981 48.7179 36.692 48.4289 36.6094C44.1766 35.247 40.172 33.1828 36.6215 30.4993C36.2912 30.2516 35.8371 30.3342 35.5894 30.6232C35.3417 30.9534 35.4243 31.4076 35.7133 31.6553C38.6857 33.8846 41.9059 35.7012 45.3739 37.0636C43.6399 37.1049 41.9059 37.0223 40.172 36.7746C34.2683 35.9902 27.2912 33.7608 25.0618 30.5819C24.8141 30.2516 24.36 30.2103 24.071 30.4167C23.7407 30.6644 23.6994 31.0773 23.9058 31.4076C26.3416 34.9168 33.0297 37.0636 38.5619 38.0131C35.7958 40.3663 31.0068 42.2241 22.915 41.192C22.1719 41.1095 21.4288 40.9856 20.7269 40.8205C11.5204 39.0865 5.82315 34.5452 2.89194 26.7424C0.579998 20.591 3.59378 13.1597 6.60756 11.9625C7.02041 11.7561 7.0617 11.4671 7.0617 11.2194C6.7727 8.08173 7.63968 5.39823 9.49749 3.66428C11.4379 1.84775 14.3278 1.10463 17.6719 1.60004C21.759 2.17803 26.4242 4.61382 25.3921 12.7882C24.8141 17.3295 26.7545 22.4488 30.8829 27.1552C31.1307 27.4442 31.5848 27.4855 31.9151 27.2378C32.2041 26.9901 32.2453 26.536 31.9976 26.2057C28.1994 21.8708 26.3003 17.0818 26.837 12.9946C28.0756 3.16886 21.759 0.733066 17.8783 0.155081C14.1214 -0.38162 10.7773 0.485358 8.50666 2.59088C8.09381 2.96244 7.72224 3.37528 7.43325 3.82942C4.46076 3.41657 0.786423 3.91198 0.621284 3.95327C0.208439 3.99455 -0.121838 4.4074 0.0433006 4.90282C0.291008 5.56337 0.580002 6.18264 0.951561 6.80191C1.15799 7.13219 1.61212 7.25604 1.94239 7.04962C2.27267 6.84319 2.39653 6.38906 2.1901 6.05879C2.02496 5.81108 1.90111 5.52209 1.77726 5.27438C3.38736 5.10924 5.03875 5.06796 6.64885 5.19181C5.98829 6.63677 5.61673 8.20559 5.61673 9.81569C5.08003 9.36156 4.54333 8.90743 4.04791 8.41201C3.75892 8.12302 3.30479 8.12302 3.0158 8.37073C2.7268 8.65972 2.7268 9.11385 2.97451 9.40284C3.59378 10.0634 4.29562 10.6414 4.99746 11.1781C1.57084 13.6964 -0.699821 21.2515 1.52955 27.1965C4.54333 35.247 10.5709 40.1186 19.8599 42.059V43.2563C19.2407 43.1324 18.6214 43.0498 18.0021 43.0086C17.5893 43.0086 17.3003 43.3388 17.3003 43.7517C17.3003 44.1645 17.6306 44.4535 18.0434 44.4535C19.0755 44.4122 21.5113 45.0728 23.3279 45.6095C23.6994 45.7333 24.1123 45.5269 24.2361 45.1554C24.36 44.7838 24.1535 44.3709 23.782 44.2471C23.782 44.2471 22.3783 43.8342 21.3462 43.5453V42.2654C21.8003 42.348 22.2957 42.4306 22.7912 42.4719C23.9058 42.637 24.938 42.7196 26.0114 42.7608V46.3526C25.4334 46.2288 24.649 46.1462 24.1535 46.1049C23.7407 46.1049 23.4517 46.4352 23.4517 46.848C23.4517 47.2609 23.782 47.5499 24.1948 47.5499C25.2269 47.5086 27.6627 48.1691 29.4793 48.7058C29.8508 48.8297 30.2637 48.6233 30.3875 48.2104C30.5114 47.8389 30.305 47.426 29.8921 47.3022C29.438 47.1783 28.4884 46.8893 27.4563 46.6003V42.6783C32.9885 42.637 37.5711 41.0269 40.461 38.0131C41.8234 38.1783 43.1858 38.3021 44.5482 38.3021C46.2821 38.3021 47.6858 38.137 48.5528 37.7654C48.8005 37.848 48.9656 37.6003 48.9243 37.27ZM34.2683 30.2516C34.1031 30.2516 33.938 30.169 33.7729 30.0865C33.4013 29.7562 33.071 29.4259 32.6995 29.0956C32.4105 28.8066 32.4105 28.3525 32.6582 28.0635C32.9472 27.7745 33.4013 27.7745 33.6903 28.0222C34.0206 28.3525 34.3509 28.6415 34.7224 28.9718C35.0114 29.2195 35.0527 29.6736 34.805 30.0039C34.6811 30.169 34.4747 30.2516 34.2683 30.2516ZM6.11214 30.8709C5.53416 29.9626 4.99746 29.0543 4.58461 28.0635C4.41948 27.6919 4.58461 27.2791 4.95617 27.114C5.32774 26.9488 5.74059 27.114 5.90572 27.4855C6.31857 28.3938 6.7727 29.2608 7.35069 30.0865C7.55711 30.4167 7.47454 30.8709 7.14426 31.0773C6.60756 31.3663 6.236 31.0773 6.11214 30.8709ZM14.6168 8.701C15.6902 8.701 16.5984 7.83403 16.5984 6.71934C16.5984 5.60466 15.7315 4.73768 14.6168 4.73768C13.5021 4.73768 12.6351 5.60466 12.6351 6.71934C12.6764 7.83403 13.5434 8.701 14.6168 8.701ZM14.6168 7.25604C14.3278 7.25604 14.0801 7.00833 14.0801 6.71934C14.0801 6.43035 14.3278 6.18264 14.6168 6.18264C14.9058 6.18264 15.1535 6.43035 15.1535 6.71934C15.1535 7.00833 14.9058 7.25604 14.6168 7.25604Z" fill="#871C90"/>
</svg>
