<svg width="24" height="23" viewBox="0 0 24 23" fill="none" xmlns="http://www.w3.org/2000/svg">
<path d="M22.5253 8.22032L15.8306 7.24737L12.838 1.18028C12.7562 1.01417 12.6217 0.879697 12.4556 0.797959C12.039 0.592295 11.5328 0.763682 11.3245 1.18028L8.3318 7.24737L1.63718 8.22032C1.45261 8.24669 1.28386 8.3337 1.15466 8.46554C0.998461 8.62608 0.912391 8.84206 0.915357 9.06603C0.918324 9.29 1.01008 9.50362 1.17048 9.65997L6.01413 14.3823L4.86979 21.0506C4.84296 21.2057 4.86012 21.3652 4.91934 21.5111C4.97856 21.657 5.07746 21.7833 5.20484 21.8758C5.33221 21.9683 5.48295 22.0233 5.63998 22.0345C5.797 22.0457 5.95402 22.0127 6.09323 21.9392L12.0812 18.7909L18.0692 21.9392C18.2327 22.0262 18.4225 22.0552 18.6045 22.0235C19.0633 21.9444 19.3717 21.5094 19.2926 21.0506L18.1483 14.3823L22.992 9.65997C23.1238 9.53077 23.2108 9.36202 23.2372 9.17745C23.3084 8.71603 22.9867 8.28888 22.5253 8.22032Z" fill="#C4C4C4"/>
</svg>
